<?xml version="1.0" encoding="utf-8"?>
<!-- Generator: Adobe Illustrator 21.0.0, SVG Export Plug-In . SVG Version: 6.00 Build 0)  -->
<!DOCTYPE svg PUBLIC "-//W3C//DTD SVG 1.1//EN" "http://www.w3.org/Graphics/SVG/1.1/DTD/svg11.dtd">
<svg version="1.1" id="Layer_1" xmlns="http://www.w3.org/2000/svg" xmlns:xlink="http://www.w3.org/1999/xlink" x="0px" y="0px"
	 width="432px" height="224.7px" viewBox="0 0 432 224.7" style="enable-background:new 0 0 432 224.7;" xml:space="preserve">
<style type="text/css">
	.st0{fill:#FFFFFF;}
	.st1{enable-background:new    ;}
	.st2{fill:none;stroke:#FFFFFF;stroke-miterlimit:10;}
</style>
<g>
	<g>
		<path class="st0" d="M323.5,44.8c-0.2-1.2-0.5-1.7-0.9-1.7s-0.7,0.6-0.8,1.7l-3.6,21.7c-0.3,1.6,0.3,2.4,1.8,2.4h5.4
			c0.6,0,1.1-0.2,1.5-0.7s0.6-1,0.5-1.7L323.5,44.8z"/>
		<path class="st0" d="M322.9,111h-6.8c-1.4,0-2,0.8-2,2.4v14.9c0,1.5,0.7,2.3,2.2,2.3h6.7c2,0,3.7-0.7,5.1-2s2.1-3,2.1-4.9V118
			c0-2-0.7-3.6-2.1-5C326.6,111.7,324.9,111,322.9,111z"/>
		<path class="st0" d="M127.8,118.2c-0.2-1.2-0.6-1.9-1-1.9s-0.7,0.6-0.9,1.9l-3.8,23.3c-0.3,1.7,0.4,2.6,2,2.6h5.8
			c0.7,0,1.2-0.3,1.6-0.8c0.4-0.5,0.6-1.1,0.5-1.8L127.8,118.2z"/>
		<path class="st0" d="M46,14.5L17.2,186.6h383.6l23.5-172.1H46z M351.6,30.1c0-1.5,0.7-2.2,2.1-2.2h6.8c1.2,0,2.2,0.8,2.8,2.3
			l15.2,34c0.2,0.4,0.5,0.6,0.8,0.6s0.5-0.3,0.5-0.9V30.2c0-0.6,0.2-1.1,0.7-1.6s1-0.7,1.7-0.7h6.5c1.5,0,2.2,0.8,2.2,2.3v61.7
			c0,1.5-0.7,2.2-2.2,2.2h-6.5c-1,0-1.8-0.7-2.4-2.1L364,56.8c-0.2-0.4-0.4-0.6-0.7-0.6c-0.4,0-0.6,0.3-0.6,0.9v34.8
			c0,1.5-0.8,2.2-2.3,2.2h-6.8c-1.4,0-2.1-0.7-2.1-2.2V30.1H351.6z M235.1,30.2c0-1.5,0.8-2.3,2.3-2.3h7.1c1.5,0,2.3,0.8,2.3,2.3
			v61.5c0,1.6-0.8,2.4-2.3,2.4h-7.1c-1.5,0-2.3-0.8-2.3-2.4V30.2z M141.4,45.4c0-5.1,1.8-9.4,5.4-13c3.6-3.6,8-5.4,13.2-5.4h0.7
			c5.1,0,9.4,1.8,13,5.4s5.4,8,5.4,13v2.8c0,0.6-0.2,1.1-0.7,1.5c-0.5,0.5-1,0.7-1.6,0.7h-7c-0.6,0-1.2-0.2-1.7-0.7s-0.7-1-0.7-1.5
			v-1c0-2.5-0.7-4.7-2-6.5s-2.9-2.7-4.9-2.7s-3.7,0.9-5.2,2.7s-2.2,4-2.2,6.5v28c0,2.6,0.7,4.8,2.2,6.6c1.4,1.8,3.1,2.7,5.1,2.7
			s3.7-0.9,5.1-2.7c1.4-1.8,2.1-4,2.1-6.6V73c0-1.5,0.7-2.3,2.2-2.3h7c1.5,0,2.3,0.8,2.3,2.3v3.4c0,5.1-1.8,9.4-5.4,13.1
			c-3.6,3.6-8,5.5-13,5.5H160c-5.1,0-9.4-1.8-13.1-5.5c-3.6-3.6-5.5-8-5.5-13.1L141.4,45.4L141.4,45.4z M119.5,30.2
			c0-1.5,0.8-2.3,2.3-2.3h7.1c1.5,0,2.3,0.8,2.3,2.3v61.5c0,1.6-0.8,2.4-2.3,2.4h-7.1c-1.5,0-2.3-0.8-2.3-2.4
			C119.5,91.7,119.5,30.2,119.5,30.2z M97.2,168.6c0,1.7-0.8,2.6-2.5,2.6h-7.5c-0.7,0-1.2-0.3-1.7-0.8c-0.5-0.6-0.8-1.1-0.8-1.7
			v-24.3c0-0.7-0.3-1.3-0.8-1.8s-1.1-0.8-1.8-0.8h-9.6c-1.6,0-2.4,0.9-2.4,2.6v24.3c0,0.6-0.3,1.2-0.7,1.7c-0.5,0.6-1.1,0.8-1.7,0.8
			h-7.3c-1.6,0-2.5-0.9-2.5-2.6v-66c0-1.7,0.8-2.5,2.5-2.5h7.3c1.6,0,2.5,0.8,2.5,2.5v25c0,1.7,0.8,2.5,2.4,2.5h9.6
			c1.7,0,2.6-0.8,2.6-2.5v-25c0-0.7,0.3-1.2,0.8-1.7s1.1-0.8,1.7-0.8h7.5c1.7,0,2.5,0.8,2.5,2.5L97.2,168.6L97.2,168.6z M98.4,91.9
			V54.4c0-0.5-0.2-0.7-0.6-0.7s-0.7,0.2-0.8,0.7l-8.9,37.4C87.8,93.3,87,94,85.9,94H82c-1.1,0-1.8-0.7-2.2-2.2l-8.7-37.5
			c-0.2-0.6-0.4-0.9-0.8-0.9c-0.6,0-0.8,0.3-0.8,0.9v37.5c0,1.5-0.8,2.2-2.3,2.2h-6.8c-1.4,0-2.1-0.7-2.1-2.2V30
			c0-1.4,0.7-2.2,2.1-2.2h12.7c1.3,0,2.1,0.8,2.5,2.5L83,61.6c0.3,1.5,0.7,2.2,1.1,2.2c0.3,0,0.7-0.7,1-2.2L91.9,30
			c0.3-1.4,1-2.2,2.2-2.2h13.1c1.5,0,2.2,0.7,2.2,2.2v61.9c0,1.5-0.7,2.2-2.2,2.2h-6.4C99.2,94.1,98.4,93.4,98.4,91.9z M149.5,170.4
			c-0.4,0.5-1,0.8-1.7,0.8h-8.1c-1.2,0-2-0.9-2.3-2.6l-2.1-10.5c-0.3-1.5-1.1-2.3-2.3-2.3h-10.8c-1.5,0-2.3,0.8-2.6,2.3l-1.9,10.5
			c-0.4,1.7-1.2,2.6-2.6,2.6h-7.9c-0.7,0-1.2-0.3-1.6-0.8s-0.6-1.1-0.4-1.8l13.1-66c0.4-1.7,1.2-2.5,2.5-2.5h12.7
			c1.3,0,2.1,0.8,2.5,2.5l14,66C150.1,169.3,150,169.9,149.5,170.4z M196.7,122c0,0.6-0.3,1.1-0.8,1.6s-1.1,0.8-1.7,0.8h-7.5
			c-0.7,0-1.2-0.3-1.8-0.8c-0.5-0.5-0.8-1.1-0.8-1.6v-1.1c0-2.7-0.7-5.1-2.1-7c-1.4-1.9-3.2-2.9-5.3-2.9c-2.2,0-4,1-5.6,2.9
			s-2.3,4.3-2.3,7v30c0,2.8,0.8,5.1,2.3,7.1c1.5,1.9,3.4,2.9,5.5,2.9s4-1,5.5-2.9s2.3-4.3,2.3-7.1v-2.3c0-1.7,0.8-2.5,2.3-2.5h7.5
			c1.7,0,2.5,0.8,2.5,2.5v3.6c0,5.5-1.9,10.1-5.8,14c-3.9,3.9-8.5,5.9-14,5.9H176c-5.5,0-10.1-2-14-5.9s-5.9-8.6-5.9-14v-33.3
			c0-5.5,1.9-10.1,5.8-14c3.9-3.9,8.6-5.8,14.2-5.8h0.8c5.5,0,10.1,1.9,14,5.8c3.8,3.9,5.8,8.5,5.8,14L196.7,122L196.7,122z
			 M199.9,69.1v22.6c0,0.6-0.2,1.1-0.7,1.6s-1,0.8-1.6,0.8h-6.8c-1.5,0-2.3-0.8-2.3-2.4V30.2c0-1.5,0.8-2.3,2.3-2.3h6.8
			c1.5,0,2.3,0.8,2.3,2.3v23.3c0,1.5,0.7,2.3,2.3,2.3h8.9c1.6,0,2.4-0.8,2.4-2.3V30.2c0-0.6,0.2-1.1,0.7-1.6s1-0.7,1.6-0.7h7
			c1.5,0,2.3,0.8,2.3,2.3v61.5c0,1.6-0.8,2.4-2.3,2.4h-7c-0.6,0-1.1-0.3-1.6-0.8s-0.7-1.1-0.7-1.6V69.1c0-0.7-0.2-1.2-0.7-1.7
			s-1-0.7-1.7-0.7h-8.9C200.6,66.7,199.9,67.5,199.9,69.1z M247.8,171.2h-9.1c-0.9,0-1.7-0.8-2.4-2.4l-10.8-27.9
			c-0.2-0.6-0.5-0.9-0.9-0.9s-0.7,0.3-1,0.9l-4.1,6.9c-0.3,0.5-0.4,1.1-0.4,1.6v19.4c0,1.6-0.8,2.4-2.3,2.4h-7.9
			c-1.5,0-2.2-0.8-2.2-2.4v-66.4c0-1.5,0.7-2.3,2.2-2.3h7.9c1.5,0,2.3,0.8,2.3,2.3v21.5c0,0.9,0.2,1.3,0.7,1.3
			c0.4,0,0.9-0.4,1.3-1.2l12.3-21.5c0.9-1.6,1.7-2.4,2.5-2.4h8.9c1.3,0,2,0.6,2,1.7c0,0.2-0.1,0.5-0.2,0.7l-13.7,23.4
			c-0.2,0.5-0.3,0.9-0.1,1.4l16.8,41.5c0.1,0.2,0.1,0.5,0.1,0.7C249.6,170.6,249,171.2,247.8,171.2z M293.2,168.6
			c0,0.7-0.3,1.3-0.8,1.8s-1.1,0.8-1.8,0.8h-30c-0.7,0-1.2-0.3-1.8-0.8c-0.5-0.5-0.8-1.1-0.8-1.8v-66c0-1.7,0.9-2.5,2.6-2.5h29.2
			c1.7,0,2.6,0.8,2.6,2.5v6.2c0,0.7-0.3,1.3-0.8,1.8s-1.1,0.8-1.8,0.8h-16.9c-1.7,0-2.6,0.8-2.6,2.5V126c0,1.6,0.9,2.4,2.6,2.4h12.8
			c1.7,0,2.6,0.8,2.6,2.5v6c0,0.7-0.3,1.3-0.8,1.8s-1.1,0.8-1.8,0.8h-12.8c-1.7,0-2.6,0.8-2.6,2.5v15c0,1.7,0.9,2.5,2.6,2.5h17.8
			c0.7,0,1.2,0.3,1.8,0.8c0.5,0.5,0.8,1.1,0.8,1.8v6.5H293.2z M294.9,91.7c0,1.6-0.8,2.4-2.3,2.4h-1.2c-1,0-1.9-0.8-2.4-2.4l-0.4-1
			c-0.3-0.8-0.6-1.2-0.8-1.2c-0.3,0-0.7,0.4-1.2,1.2c-2.2,2.9-5.4,4.3-9.4,4.3h-1.5c-5.5,0-10-1.8-13.4-5.5
			c-3.4-3.6-5.1-8.1-5.1-13.3V45.5c0-5.1,1.8-9.4,5.4-13.1c3.6-3.6,8-5.5,13-5.5h0.7c5.1,0,9.4,1.8,13,5.5c3.6,3.6,5.3,8,5.3,13.1
			v2.7c0,1.6-0.8,2.4-2.3,2.4h-6.4c-0.6,0-1.2-0.3-1.7-0.8c-0.5-0.6-0.7-1.1-0.7-1.6v-1c0-2.5-0.7-4.6-2.2-6.5
			c-1.5-1.8-3.2-2.7-5.2-2.7s-3.8,0.9-5.2,2.7c-1.4,1.8-2.2,4-2.2,6.5v27.7c0,2.7,0.6,4.8,1.9,6.5s3.1,2.5,5.4,2.5
			c4.9,0,7.4-3,7.4-9v-2.7c0-0.6-0.2-1.1-0.7-1.6s-1-0.7-1.6-0.7h-3.4c-0.6,0-1.2-0.2-1.7-0.7s-0.7-1-0.7-1.7V63
			c0-0.6,0.2-1.2,0.7-1.7s1-0.7,1.7-0.7h14.8c0.6,0,1.1,0.3,1.6,0.8c0.5,0.6,0.7,1.1,0.7,1.6v28.7H294.9z M341.1,171.2h-7.7
			c-1,0-1.8-0.8-2.4-2.4l-9.1-25.9c-0.4-1.2-1-1.8-1.8-1.8h-3.9c-1.5,0-2.2,0.8-2.2,2.4v25.2c0,0.6-0.2,1.1-0.7,1.6s-1,0.8-1.7,0.8
			h-7.3c-1.5,0-2.2-0.8-2.2-2.4v-66.4c0-1.5,0.7-2.3,2.2-2.3h18.2c5.3,0,9.8,1.7,13.5,5.1c3.7,3.6,5.6,8.1,5.6,13.5v3.5
			c0,7.1-3,12.4-9,16.1c-0.3,0.2-0.3,0.6-0.1,1.2l10.3,29.3c0.1,0.2,0.2,0.4,0.2,0.6C343.1,170.6,342.4,171.2,341.1,171.2z
			 M343.8,93.4c-0.4,0.5-1,0.7-1.6,0.7h-7.5c-1.1,0-1.8-0.8-2.2-2.4l-2-9.8c-0.3-1.4-1-2.2-2.2-2.2h-10.1c-1.4,0-2.2,0.7-2.4,2.2
			l-1.7,9.8c-0.3,1.6-1.1,2.4-2.4,2.4h-7.4c-0.6,0-1.1-0.2-1.5-0.7s-0.5-1-0.4-1.7l12.2-61.5c0.3-1.5,1.1-2.3,2.3-2.3h11.8
			c1.2,0,2,0.8,2.3,2.3l13.1,61.5C344.3,92.3,344.2,92.9,343.8,93.4z M386.7,167.2c-3.8,3.4-8.6,5.2-14.5,5.2
			c-7,0-12.4-2.5-16.3-7.4c-2.1-2.7-3.9-6.6-5.3-11.6c-0.4-1.4,0.1-2.4,1.4-2.8l6.6-2.2c0.3-0.1,0.6-0.1,0.8-0.1
			c1.2,0,2,0.6,2.3,1.7c2,7.4,5.5,11.1,10.5,11.1c2.5,0,4.4-0.7,5.8-2.1c1.4-1.4,2.1-3.3,2.1-5.6c0-3.1-2.4-6.8-7.3-11
			c-4.4-3.7-8.9-7.5-13.4-11.2c-4.9-4.8-7.3-9.5-7.3-14.2c0-5.6,1.9-10,5.7-13.2c3.4-3,7.7-4.5,12.8-4.5c6.2,0,11.3,2.4,15.1,7.3
			c2,2.5,3.4,5.4,4.4,8.7c0.1,0.2,0.1,0.5,0.1,0.8c0,1.1-0.5,1.8-1.6,2.1l-5.8,1.9c-0.2,0.1-0.5,0.2-0.7,0.2c-1.1,0-1.8-0.5-2.2-1.6
			c-2.7-6.3-5.8-9.4-9.3-9.4c-1.9,0-3.5,0.8-4.9,2.4s-2.1,3.4-2.1,5.4c0,2.4,2.5,5.7,7.5,9.7c8.1,6.5,12.7,10.4,13.9,11.6
			c5,5.1,7.5,10.2,7.5,15.2C392.3,159.1,390.4,163.8,386.7,167.2z"/>
	</g>
</g>
<g>
	<g class="st1">
		<path class="st0" d="M135.1,206.8c0,1.2-0.5,2.3-1.4,3.2c-0.9,0.9-2,1.3-3.3,1.3h-3.7c-0.2,0-0.3-0.1-0.4-0.2
			c-0.1-0.1-0.2-0.2-0.2-0.4v-14.4c0-0.4,0.2-0.5,0.6-0.5h3.3c1.5,0,2.6,0.4,3.4,1.1c0.8,0.7,1.2,1.6,1.2,2.8c0,1.3-0.5,2.2-1.4,3
			c-0.1,0.1-0.2,0.2-0.2,0.3c0,0.1,0.1,0.2,0.2,0.3C134.4,204.1,135.1,205.3,135.1,206.8z M131.8,200.1c0-0.5-0.2-0.9-0.5-1.3
			c-0.3-0.3-0.7-0.5-1.2-0.5h-0.8c-0.4,0-0.6,0.2-0.6,0.5v2.6c0,0.1,0.1,0.3,0.2,0.4c0.1,0.1,0.2,0.2,0.4,0.2h0.8
			c0.5,0,0.8-0.2,1.2-0.6C131.6,201,131.8,200.6,131.8,200.1z M132.1,206.6c0-0.6-0.2-1.1-0.6-1.6c-0.4-0.5-0.9-0.7-1.4-0.7h-0.8
			c-0.4,0-0.6,0.2-0.6,0.5v3.4c0,0.4,0.2,0.5,0.6,0.5h1.1c0.5,0,0.9-0.2,1.2-0.6C131.9,207.8,132.1,207.3,132.1,206.6z"/>
		<path class="st0" d="M146.2,207.3c0,1.1-0.4,2.1-1.3,2.9c-0.8,0.8-1.8,1.2-3,1.2h-0.5c-1.1,0-2.1-0.4-3-1.2
			c-0.8-0.8-1.2-1.8-1.2-2.9v-11c0-0.3,0.2-0.5,0.5-0.5h1.7c0.3,0,0.5,0.2,0.5,0.5V207c0,0.6,0.2,1.1,0.5,1.5
			c0.4,0.4,0.8,0.6,1.3,0.6c0.5,0,0.9-0.2,1.2-0.6c0.4-0.4,0.5-0.9,0.5-1.5v-10.7c0-0.3,0.2-0.5,0.5-0.5h1.7c0.1,0,0.3,0.1,0.4,0.2
			c0.1,0.1,0.2,0.2,0.2,0.3V207.3z"/>
		<path class="st0" d="M151.3,210.7c0,0.4-0.2,0.6-0.5,0.6h-1.7c-0.4,0-0.5-0.2-0.5-0.6v-14.4c0-0.4,0.2-0.5,0.5-0.5h1.7
			c0.4,0,0.5,0.2,0.5,0.5V210.7z"/>
		<path class="st0" d="M161.1,210.7c0,0.3-0.2,0.5-0.5,0.5h-6.5c-0.3,0-0.5-0.2-0.5-0.5v-14.4c0-0.3,0.2-0.5,0.5-0.5h1.7
			c0.3,0,0.5,0.2,0.5,0.5v12c0,0.3,0.2,0.5,0.5,0.5h3.7c0.3,0,0.5,0.2,0.5,0.6V210.7z"/>
		<path class="st0" d="M171.3,207c0,1.2-0.4,2.2-1.3,3s-1.9,1.3-3.1,1.3h-3.8c-0.1,0-0.3-0.1-0.4-0.2c-0.1-0.1-0.2-0.2-0.2-0.4
			v-14.4c0-0.4,0.2-0.5,0.5-0.5h3.8c1.2,0,2.2,0.4,3.1,1.3c0.8,0.8,1.3,1.9,1.3,3V207z M168.7,206.7v-6.4c0-0.6-0.2-1.1-0.7-1.5
			c-0.4-0.4-1-0.6-1.6-0.6h-0.6c-0.4,0-0.6,0.2-0.6,0.5v9.6c0,0.2,0.1,0.3,0.2,0.4c0.1,0.1,0.2,0.2,0.4,0.2h0.6
			c0.6,0,1.1-0.2,1.6-0.6S168.7,207.3,168.7,206.7z"/>
		<path class="st0" d="M176.3,210.7c0,0.1-0.1,0.3-0.2,0.4s-0.2,0.2-0.4,0.2h-1.6c-0.2,0-0.3-0.1-0.4-0.2c-0.1-0.1-0.2-0.2-0.2-0.4
			v-1.8c0-0.3,0.2-0.5,0.6-0.5h1.6c0.4,0,0.6,0.2,0.6,0.5V210.7z"/>
		<path class="st0" d="M192.3,206.8c0,1.2-0.5,2.3-1.4,3.2c-0.9,0.9-2,1.3-3.3,1.3h-3.7c-0.2,0-0.3-0.1-0.4-0.2
			c-0.1-0.1-0.2-0.2-0.2-0.4v-14.4c0-0.4,0.2-0.5,0.6-0.5h3.3c1.5,0,2.6,0.4,3.4,1.1c0.8,0.7,1.2,1.6,1.2,2.8c0,1.3-0.5,2.2-1.4,3
			c-0.1,0.1-0.2,0.2-0.2,0.3c0,0.1,0.1,0.2,0.2,0.3C191.6,204.1,192.3,205.3,192.3,206.8z M189,200.1c0-0.5-0.2-0.9-0.5-1.3
			c-0.3-0.3-0.7-0.5-1.2-0.5h-0.8c-0.4,0-0.6,0.2-0.6,0.5v2.6c0,0.1,0.1,0.3,0.2,0.4c0.1,0.1,0.2,0.2,0.4,0.2h0.8
			c0.5,0,0.8-0.2,1.2-0.6C188.8,201,189,200.6,189,200.1z M189.3,206.6c0-0.6-0.2-1.1-0.6-1.6c-0.4-0.5-0.9-0.7-1.4-0.7h-0.8
			c-0.4,0-0.6,0.2-0.6,0.5v3.4c0,0.4,0.2,0.5,0.6,0.5h1.1c0.5,0,0.9-0.2,1.2-0.6C189.1,207.8,189.3,207.3,189.3,206.6z"/>
		<path class="st0" d="M203.3,210.7c0,0.1,0,0.1,0,0.1c0,0.3-0.1,0.4-0.4,0.4h-1.7c-0.2,0-0.4-0.2-0.5-0.5l-2-5.6
			c-0.1-0.3-0.2-0.4-0.4-0.4h-0.9c-0.3,0-0.5,0.2-0.5,0.5v5.5c0,0.1-0.1,0.2-0.2,0.4c-0.1,0.1-0.2,0.2-0.4,0.2h-1.6
			c-0.3,0-0.5-0.2-0.5-0.5v-14.4c0-0.3,0.2-0.5,0.5-0.5h4c1.2,0,2.1,0.4,2.9,1.1c0.8,0.8,1.2,1.8,1.2,2.9v0.8c0,1.5-0.7,2.7-2,3.5
			c-0.1,0-0.1,0.1,0,0.3L203.3,210.7z M200.5,200.9v-1.2c0-0.4-0.2-0.8-0.5-1.1s-0.7-0.4-1.1-0.4h-1.5c-0.3,0-0.4,0.2-0.4,0.5v3.2
			c0,0.3,0.2,0.5,0.5,0.5h1.5c0.4,0,0.8-0.1,1.1-0.4S200.5,201.4,200.5,200.9z"/>
		<path class="st0" d="M212.9,210.7c0,0.2-0.1,0.3-0.2,0.4c-0.1,0.1-0.2,0.2-0.4,0.2h-6.5c-0.1,0-0.3-0.1-0.4-0.2s-0.2-0.2-0.2-0.4
			v-14.4c0-0.4,0.2-0.5,0.6-0.5h6.3c0.4,0,0.6,0.2,0.6,0.5v1.4c0,0.2-0.1,0.3-0.2,0.4c-0.1,0.1-0.2,0.2-0.4,0.2h-3.7
			c-0.4,0-0.6,0.2-0.6,0.5v2.6c0,0.3,0.2,0.5,0.6,0.5h2.8c0.4,0,0.6,0.2,0.6,0.5v1.3c0,0.2-0.1,0.3-0.2,0.4
			c-0.1,0.1-0.2,0.2-0.4,0.2h-2.8c-0.4,0-0.6,0.2-0.6,0.5v3.3c0,0.4,0.2,0.5,0.6,0.5h3.9c0.1,0,0.3,0.1,0.4,0.2s0.2,0.2,0.2,0.4
			V210.7z"/>
		<path class="st0" d="M224.1,210.7c0,0.1,0,0.3-0.1,0.4c-0.1,0.1-0.2,0.2-0.4,0.2h-1.8c-0.3,0-0.4-0.2-0.5-0.6l-0.5-2.3
			c-0.1-0.3-0.2-0.5-0.5-0.5h-2.4c-0.3,0-0.5,0.2-0.6,0.5l-0.4,2.3c-0.1,0.4-0.3,0.6-0.6,0.6h-1.7c-0.1,0-0.3-0.1-0.3-0.2
			c-0.1-0.1-0.1-0.2-0.1-0.4l2.8-14.4c0.1-0.4,0.3-0.5,0.5-0.5h2.8c0.3,0,0.5,0.2,0.5,0.5L224.1,210.7z M220.2,204.8l-0.9-5.1
			c-0.1-0.3-0.1-0.4-0.2-0.4c-0.1,0-0.2,0.1-0.2,0.4l-0.8,5.1c-0.1,0.4,0.1,0.6,0.4,0.6h1.3c0.1,0,0.3-0.1,0.4-0.2
			C220.2,205.1,220.2,205,220.2,204.8z"/>
		<path class="st0" d="M235.2,210.7c0,0.1,0,0.1,0,0.2c0,0.2-0.1,0.4-0.4,0.4h-2c-0.2,0-0.4-0.2-0.5-0.5l-2.4-6.1
			c-0.1-0.1-0.1-0.2-0.2-0.2c-0.1,0-0.1,0.1-0.2,0.2l-0.9,1.5c-0.1,0.1-0.1,0.2-0.1,0.3v4.2c0,0.3-0.2,0.5-0.5,0.5h-1.7
			c-0.3,0-0.5-0.2-0.5-0.5v-14.4c0-0.3,0.2-0.5,0.5-0.5h1.7c0.3,0,0.5,0.2,0.5,0.5v4.7c0,0.2,0.1,0.3,0.2,0.3c0.1,0,0.2-0.1,0.3-0.3
			l2.7-4.7c0.2-0.3,0.4-0.5,0.5-0.5h1.9c0.3,0,0.4,0.1,0.4,0.4c0,0.1,0,0.1-0.1,0.2l-3,5.1c0,0.1-0.1,0.2,0,0.3L235.2,210.7z"/>
		<path class="st0" d="M239.8,210.7c0,0.1-0.1,0.3-0.2,0.4s-0.2,0.2-0.4,0.2h-1.6c-0.2,0-0.3-0.1-0.4-0.2c-0.1-0.1-0.2-0.2-0.2-0.4
			v-1.8c0-0.3,0.2-0.5,0.6-0.5h1.6c0.4,0,0.6,0.2,0.6,0.5V210.7z"/>
		<path class="st0" d="M255.7,210.7c0,0.1,0,0.1,0,0.1c0,0.3-0.1,0.4-0.4,0.4h-1.7c-0.2,0-0.4-0.2-0.5-0.5l-2-5.6
			c-0.1-0.3-0.2-0.4-0.4-0.4h-0.9c-0.3,0-0.5,0.2-0.5,0.5v5.5c0,0.1-0.1,0.2-0.2,0.4c-0.1,0.1-0.2,0.2-0.4,0.2h-1.6
			c-0.3,0-0.5-0.2-0.5-0.5v-14.4c0-0.3,0.2-0.5,0.5-0.5h4c1.2,0,2.1,0.4,2.9,1.1c0.8,0.8,1.2,1.8,1.2,2.9v0.8c0,1.5-0.7,2.7-2,3.5
			c-0.1,0-0.1,0.1,0,0.3L255.7,210.7z M252.9,200.9v-1.2c0-0.4-0.2-0.8-0.5-1.1c-0.3-0.3-0.7-0.4-1.1-0.4h-1.5
			c-0.3,0-0.4,0.2-0.4,0.5v3.2c0,0.3,0.2,0.5,0.5,0.5h1.5c0.4,0,0.8-0.1,1.1-0.4C252.7,201.7,252.9,201.4,252.9,200.9z"/>
		<path class="st0" d="M265.2,210.7c0,0.2-0.1,0.3-0.2,0.4c-0.1,0.1-0.2,0.2-0.4,0.2h-6.5c-0.1,0-0.3-0.1-0.4-0.2s-0.2-0.2-0.2-0.4
			v-14.4c0-0.4,0.2-0.5,0.6-0.5h6.3c0.4,0,0.6,0.2,0.6,0.5v1.4c0,0.2-0.1,0.3-0.2,0.4c-0.1,0.1-0.2,0.2-0.4,0.2h-3.7
			c-0.4,0-0.6,0.2-0.6,0.5v2.6c0,0.3,0.2,0.5,0.6,0.5h2.8c0.4,0,0.6,0.2,0.6,0.5v1.3c0,0.2-0.1,0.3-0.2,0.4
			c-0.1,0.1-0.2,0.2-0.4,0.2h-2.8c-0.4,0-0.6,0.2-0.6,0.5v3.3c0,0.4,0.2,0.5,0.6,0.5h3.9c0.1,0,0.3,0.1,0.4,0.2
			c0.1,0.1,0.2,0.2,0.2,0.4V210.7z"/>
		<path class="st0" d="M275.8,200.8c0,1.1-0.4,2.1-1.2,2.9c-0.8,0.8-1.8,1.2-2.9,1.2h-1.4c-0.3,0-0.5,0.2-0.5,0.5v5.3
			c0,0.3-0.2,0.5-0.5,0.5h-1.7c-0.3,0-0.5-0.2-0.5-0.5v-14.4c0-0.3,0.2-0.5,0.5-0.5h4.1c1.1,0,2.1,0.4,2.9,1.2s1.2,1.8,1.2,2.9
			V200.8z M273.1,201.1v-1.3c0-0.4-0.2-0.8-0.5-1.1c-0.3-0.3-0.7-0.4-1.1-0.4h-1.1c-0.1,0-0.3,0-0.4,0.1c-0.1,0.1-0.2,0.2-0.2,0.4
			v3.4c0,0.1,0.1,0.3,0.2,0.4c0.1,0.1,0.3,0.1,0.4,0.1h1.1c0.4,0,0.8-0.2,1.1-0.5C272.9,201.9,273.1,201.5,273.1,201.1z"/>
		<path class="st0" d="M285.3,210.7c0,0.2-0.1,0.3-0.2,0.4c-0.1,0.1-0.2,0.2-0.4,0.2h-6.5c-0.1,0-0.3-0.1-0.4-0.2s-0.2-0.2-0.2-0.4
			v-14.4c0-0.4,0.2-0.5,0.6-0.5h6.3c0.4,0,0.6,0.2,0.6,0.5v1.4c0,0.2-0.1,0.3-0.2,0.4c-0.1,0.1-0.2,0.2-0.4,0.2h-3.7
			c-0.4,0-0.6,0.2-0.6,0.5v2.6c0,0.3,0.2,0.5,0.6,0.5h2.8c0.4,0,0.6,0.2,0.6,0.5v1.3c0,0.2-0.1,0.3-0.2,0.4
			c-0.1,0.1-0.2,0.2-0.4,0.2h-2.8c-0.4,0-0.6,0.2-0.6,0.5v3.3c0,0.4,0.2,0.5,0.6,0.5h3.9c0.1,0,0.3,0.1,0.4,0.2
			c0.1,0.1,0.2,0.2,0.2,0.4V210.7z"/>
		<path class="st0" d="M296.6,210.7c0,0.1,0,0.3-0.1,0.4c-0.1,0.1-0.2,0.2-0.4,0.2h-1.8c-0.3,0-0.4-0.2-0.5-0.6l-0.5-2.3
			c-0.1-0.3-0.2-0.5-0.5-0.5h-2.4c-0.3,0-0.5,0.2-0.6,0.5l-0.4,2.3c-0.1,0.4-0.3,0.6-0.6,0.6h-1.7c-0.1,0-0.3-0.1-0.3-0.2
			s-0.1-0.2-0.1-0.4l2.8-14.4c0.1-0.4,0.3-0.5,0.5-0.5h2.8c0.3,0,0.5,0.2,0.5,0.5L296.6,210.7z M292.7,204.8l-0.9-5.1
			c-0.1-0.3-0.1-0.4-0.2-0.4c-0.1,0-0.2,0.1-0.2,0.4l-0.8,5.1c-0.1,0.4,0.1,0.6,0.4,0.6h1.3c0.1,0,0.3-0.1,0.4-0.2
			C292.7,205.1,292.7,205,292.7,204.8z"/>
		<path class="st0" d="M305.9,197.6c0,0.3-0.2,0.5-0.5,0.5H303c-0.1,0-0.2,0.1-0.4,0.2c-0.1,0.1-0.2,0.2-0.2,0.3v12.1
			c0,0.3-0.2,0.5-0.5,0.5h-1.6c-0.3,0-0.5-0.2-0.5-0.5v-12.1c0-0.3-0.2-0.5-0.5-0.5H297c-0.3,0-0.5-0.2-0.5-0.5v-1.3
			c0-0.3,0.2-0.5,0.5-0.5h8.4c0.4,0,0.5,0.2,0.5,0.5V197.6z"/>
		<path class="st0" d="M310.2,210.7c0,0.1-0.1,0.3-0.2,0.4s-0.2,0.2-0.4,0.2H308c-0.2,0-0.3-0.1-0.4-0.2s-0.2-0.2-0.2-0.4v-1.8
			c0-0.3,0.2-0.5,0.6-0.5h1.6c0.4,0,0.6,0.2,0.6,0.5V210.7z"/>
	</g>
	<line class="st2" x1="15.1" y1="202.3" x2="121.5" y2="202.3"/>
	<line class="st2" x1="314.1" y1="201.4" x2="400.6" y2="201.4"/>
</g>
</svg>
